<svg xmlns="http://www.w3.org/2000/svg" width="564" height="423" viewBox="0 0 564 423">
<g>
<path d="M 213.00,344.85 C184.68,344.40 157.00,343.66 151.50,343.22 L 141.50,342.41 L 152.50,341.72 C158.55,341.34 171.45,340.74 181.16,340.39 L 198.81,339.76 L 197.86,337.03 C197.33,335.52 197.04,333.72 197.20,333.03 C197.37,332.35 195.86,331.19 193.84,330.48 C183.95,326.94 181.48,322.96 182.43,312.06 C183.09,304.54 183.07,304.44 180.05,301.55 C173.78,295.54 175.39,295.03 200.75,295.01 L 219.99,295.00 L 223.75,291.63 C225.81,289.77 229.06,287.30 230.98,286.15 L 234.45,284.05 L 234.16,276.77 C233.89,270.02 234.09,269.16 237.06,264.70 C241.53,257.98 247.01,254.13 265.18,244.94 C282.22,236.32 285.15,233.81 283.19,229.51 C282.58,228.18 280.83,226.45 279.29,225.66 C276.09,224.00 255.98,219.00 252.55,219.00 C251.28,219.00 246.84,221.49 242.68,224.53 C234.28,230.66 229.47,233.00 225.24,233.00 C223.69,233.00 220.66,233.90 218.50,235.00 C213.63,237.48 212.70,237.51 213.46,235.13 C213.91,233.71 213.29,232.95 210.82,231.93 C206.17,230.00 200.89,230.52 195.07,233.46 C191.80,235.12 189.15,235.83 187.62,235.44 C186.32,235.11 182.87,235.56 179.95,236.42 C171.37,238.97 166.99,238.53 161.16,234.52 C158.37,232.60 154.22,230.61 151.93,230.09 C149.63,229.58 147.27,228.67 146.68,228.08 C145.08,226.48 144.00,226.77 144.00,228.80 C144.00,230.29 143.35,230.52 140.25,230.17 C138.19,229.93 136.18,229.24 135.78,228.62 C135.30,227.88 134.52,228.27 133.47,229.75 C131.65,232.33 127.00,232.86 127.00,230.49 C127.00,229.25 126.65,229.20 125.08,230.18 C123.59,231.11 122.84,231.11 121.72,230.18 C120.60,229.25 119.36,229.32 116.06,230.48 C112.30,231.80 111.51,231.80 108.89,230.44 C107.26,229.60 106.23,228.43 106.60,227.85 C106.96,227.26 106.66,226.41 105.93,225.96 C104.86,225.30 104.85,224.63 105.86,222.41 C106.82,220.30 106.83,219.51 105.91,218.94 C102.97,217.13 109.43,212.00 114.65,212.00 C115.94,212.00 117.00,211.55 117.00,211.00 C117.00,210.45 117.67,210.00 118.50,210.00 C119.33,210.00 120.00,209.55 120.00,209.00 C120.00,208.45 119.55,208.00 119.00,208.00 C118.45,208.00 118.00,207.52 118.00,206.93 C118.00,206.34 118.84,206.13 119.89,206.46 C121.23,206.89 122.75,206.02 125.14,203.46 C126.99,201.48 128.38,199.42 128.23,198.88 C127.94,197.79 130.38,195.02 131.68,194.97 C132.13,194.96 134.27,193.61 136.43,191.97 C138.59,190.34 140.81,189.00 141.37,189.00 C141.93,189.00 143.67,187.78 145.23,186.28 C147.45,184.15 149.40,183.43 154.28,182.93 C157.70,182.57 160.90,182.64 161.39,183.08 C161.87,183.51 162.89,183.26 163.64,182.50 C165.36,180.78 168.28,181.16 174.00,183.85 C176.47,185.01 179.21,185.97 180.08,185.98 C180.95,185.99 181.95,186.28 182.29,186.62 C183.53,187.86 191.56,187.64 193.62,186.31 C195.53,185.08 195.81,185.15 196.28,186.97 C196.57,188.09 197.53,189.00 198.41,189.00 C199.28,189.00 200.00,189.75 200.00,190.67 C200.00,191.58 200.29,192.04 200.65,191.68 C201.46,190.88 206.11,197.01 205.48,198.04 C205.23,198.44 205.95,199.02 207.09,199.31 C208.22,199.61 209.39,200.78 209.69,201.93 C210.32,204.34 210.44,204.37 212.84,202.87 C215.17,201.41 222.60,204.57 221.10,206.38 C219.77,207.98 222.23,211.00 224.86,211.00 C227.56,211.00 227.81,214.99 225.25,217.21 C222.71,219.41 214.16,222.08 213.43,220.89 C213.10,220.36 212.00,220.18 210.99,220.50 C209.84,220.87 208.79,220.45 208.20,219.39 C207.52,218.18 206.70,217.93 205.37,218.51 C204.34,218.96 203.16,219.42 202.75,219.54 C202.34,219.65 201.89,219.87 201.75,220.01 C201.61,220.15 200.05,220.35 198.27,220.44 C193.42,220.70 193.53,221.45 198.75,223.77 C203.38,225.81 214.15,227.47 220.80,227.15 C227.03,226.85 237.48,219.85 240.55,213.90 C242.63,209.89 242.35,206.98 239.50,202.79 C236.37,198.18 236.36,196.17 239.47,191.90 C240.82,190.03 242.69,187.46 243.62,186.20 C247.01,181.56 242.30,180.64 224.34,182.46 C216.23,183.28 216.13,183.26 209.25,179.70 C201.03,175.44 192.00,173.74 192.00,176.44 C192.00,177.62 191.31,178.06 189.75,177.87 C188.51,177.72 186.40,178.21 185.05,178.94 C183.38,179.86 182.48,179.94 182.23,179.20 C182.00,178.50 179.20,178.28 174.24,178.56 C165.71,179.06 163.00,178.55 163.00,176.43 C163.00,175.64 162.40,175.00 161.67,175.00 C159.37,175.00 160.52,170.86 163.27,169.19 C164.92,168.19 165.83,166.83 165.70,165.55 C165.56,164.08 166.01,163.59 167.30,163.80 C169.03,164.10 175.00,158.75 175.00,156.89 C175.00,156.40 175.79,155.97 176.75,155.93 C182.27,155.69 187.86,151.67 190.92,145.75 C192.24,143.19 192.80,142.99 198.92,142.88 C202.54,142.82 206.08,142.84 206.80,142.94 C207.51,143.03 208.88,142.13 209.85,140.94 C212.05,138.22 216.89,137.59 219.25,139.72 C220.22,140.60 221.31,141.02 221.68,140.65 C222.05,140.28 223.37,140.93 224.61,142.10 C226.12,143.53 228.34,144.28 231.38,144.40 C234.80,144.53 236.41,145.17 238.02,147.04 C244.73,154.81 246.82,156.78 247.62,156.06 C248.79,154.98 253.50,158.10 253.50,159.95 C253.50,160.76 254.62,161.68 256.00,162.00 C258.28,162.54 258.60,163.13 258.15,165.92 C257.77,168.27 249.21,169.51 246.23,167.65 C245.53,167.21 243.51,167.30 241.73,167.84 C239.95,168.38 237.09,168.79 235.36,168.74 C230.84,168.63 226.00,170.88 226.00,173.09 C226.00,176.40 228.98,176.95 239.27,175.51 C250.01,174.01 249.72,174.12 256.00,168.97 C262.47,163.66 266.24,162.00 271.82,162.00 C277.34,162.00 281.04,164.23 283.55,169.09 C286.21,174.24 292.02,172.49 291.98,166.55 C291.94,161.13 287.06,157.14 273.00,151.03 C259.74,145.27 255.26,140.22 256.91,132.91 C258.54,125.67 261.52,122.54 267.75,121.52 C270.09,121.14 272.00,120.50 272.00,120.11 C272.00,119.17 263.38,115.00 261.43,115.00 C260.60,115.00 258.70,114.14 257.21,113.08 C255.72,112.02 253.04,110.86 251.25,110.50 C248.44,109.93 248.09,110.08 248.67,111.58 C249.38,113.44 249.32,113.43 239.68,111.10 C236.67,110.37 235.75,110.48 235.32,111.62 C234.98,112.50 234.04,112.83 232.89,112.47 C231.86,112.14 230.02,112.58 228.79,113.44 C225.66,115.63 219.45,115.45 217.10,113.10 C214.32,110.32 213.52,107.12 215.43,106.39 C216.29,106.06 217.00,105.41 217.00,104.94 C217.00,104.48 218.13,102.89 219.50,101.41 C220.88,99.92 222.00,97.86 222.00,96.82 C222.00,95.27 222.34,95.11 223.91,95.95 C225.53,96.82 225.98,96.51 226.91,93.82 C227.52,92.09 227.79,90.46 227.52,90.19 C226.80,89.47 231.88,85.00 233.43,85.00 C234.16,85.00 235.32,84.32 236.02,83.48 C236.71,82.64 239.24,81.46 241.64,80.86 C244.04,80.26 246.00,79.39 246.00,78.93 C246.00,78.47 247.61,77.79 249.58,77.42 C251.55,77.05 253.39,76.15 253.67,75.43 C254.16,74.15 263.71,71.58 267.25,71.78 C268.21,71.83 269.00,71.47 269.00,70.97 C269.00,70.47 270.84,70.21 273.09,70.40 C275.34,70.59 279.28,70.11 281.84,69.34 C287.43,67.64 290.45,68.22 292.52,71.39 C293.37,72.69 295.98,74.96 298.33,76.44 C300.67,77.92 303.02,80.12 303.54,81.32 C304.07,82.52 306.56,84.62 309.07,86.00 C313.88,88.64 322.50,96.59 322.50,98.41 C322.50,98.99 323.74,100.07 325.25,100.79 C330.14,103.14 328.16,107.49 321.13,109.85 C317.68,111.01 312.99,110.44 311.87,108.73 C311.47,108.12 309.95,108.19 307.75,108.92 C305.28,109.73 302.96,109.78 299.78,109.06 C297.00,108.44 294.09,108.40 292.14,108.96 C289.95,109.59 289.00,109.52 289.00,108.73 C289.00,107.15 282.13,113.93 280.41,117.20 C279.64,118.69 279.00,120.15 279.00,120.45 C279.00,121.58 284.20,120.95 287.05,119.47 C288.78,118.58 290.00,118.38 290.00,118.99 C290.00,120.52 283.87,123.99 281.18,124.00 C278.53,124.00 271.16,128.06 268.52,130.98 C266.31,133.42 266.24,137.50 268.38,139.87 C270.31,142.00 276.87,144.20 278.42,143.24 C279.01,142.87 280.47,142.69 281.66,142.84 C283.83,143.12 285.76,140.04 284.60,138.16 C284.01,137.21 287.63,133.74 290.26,132.73 C291.18,132.38 292.20,132.52 292.53,133.04 C293.41,134.47 295.00,134.20 295.00,132.62 C295.00,131.86 295.92,130.63 297.06,129.87 C298.19,129.12 299.22,127.73 299.36,126.79 C299.49,125.85 300.64,124.18 301.89,123.09 C303.15,122.00 303.89,120.63 303.53,120.05 C303.16,119.45 303.75,119.00 304.94,119.00 C306.10,119.00 307.00,118.35 307.00,117.50 C307.00,115.73 308.36,115.59 311.12,117.06 C313.12,118.13 319.63,116.36 324.50,113.41 C327.33,111.70 332.70,110.71 333.37,111.79 C333.67,112.28 337.01,112.54 340.78,112.35 C346.24,112.09 348.04,112.38 349.57,113.77 C350.63,114.73 352.62,116.08 354.00,116.76 C360.58,120.04 366.23,123.65 366.17,124.53 C366.02,126.39 372.41,132.00 374.66,132.00 C376.27,132.00 376.77,132.44 376.36,133.50 C376.00,134.45 376.38,135.00 377.39,135.00 C378.28,135.00 379.00,135.45 379.00,136.00 C379.00,136.55 380.15,137.00 381.55,137.00 C384.97,137.00 390.00,139.69 390.00,141.53 C390.00,142.34 389.50,143.00 388.89,143.00 C388.28,143.00 388.06,143.68 388.39,144.50 C388.73,145.32 389.27,146.68 389.61,147.50 C390.00,148.48 389.63,149.00 388.55,149.00 C387.63,149.00 387.13,149.41 387.44,149.91 C387.75,150.41 387.71,151.59 387.35,152.53 C386.79,154.00 385.79,154.15 380.44,153.60 C375.82,153.13 374.06,153.29 373.71,154.23 C373.34,155.25 372.99,155.25 371.92,154.25 C370.11,152.54 368.66,152.68 369.36,154.50 C370.10,156.42 367.08,156.51 364.52,154.64 C363.33,153.77 361.11,153.46 358.33,153.77 C354.79,154.17 354.00,153.96 354.00,152.63 C354.00,150.64 354.57,150.59 348.04,153.08 C341.65,155.50 330.00,163.74 330.00,165.82 C330.00,166.96 329.11,167.11 325.75,166.55 C323.41,166.15 320.03,165.59 318.24,165.31 C313.51,164.54 310.30,167.14 307.06,174.37 C304.16,180.84 299.66,185.55 295.34,186.63 C292.91,187.24 284.33,186.73 274.81,185.41 C272.23,185.05 268.98,185.04 267.58,185.39 C265.09,186.02 262.00,190.44 262.00,193.39 C262.00,196.90 266.67,200.14 277.24,203.96 C288.71,208.11 291.85,209.93 299.12,216.60 C303.95,221.03 308.90,222.99 315.30,222.99 C320.01,223.00 322.75,221.61 331.00,214.99 C336.87,210.29 337.53,209.99 337.82,211.89 C338.20,214.41 338.29,214.42 342.05,212.47 C345.68,210.60 345.73,209.72 342.37,207.07 C340.45,205.57 338.28,205.00 334.42,205.00 C331.50,205.00 328.80,204.48 328.41,203.85 C327.90,203.02 327.39,203.11 326.60,204.17 C324.16,207.46 316.58,206.65 311.85,202.60 C309.73,200.79 309.77,197.31 311.91,197.78 C314.59,198.37 317.00,196.84 317.00,194.56 C317.00,191.47 319.40,189.63 322.42,190.39 C324.30,190.86 325.01,190.54 325.50,189.00 C325.85,187.90 326.75,187.00 327.50,187.00 C328.25,187.00 329.15,186.11 329.49,185.02 C330.47,181.96 336.94,175.76 338.54,176.38 C339.32,176.67 341.54,176.26 343.48,175.45 C345.41,174.64 347.00,174.27 347.00,174.64 C347.00,175.01 347.79,174.68 348.75,173.90 C352.84,170.62 354.77,170.01 356.07,171.59 C356.85,172.52 357.67,172.73 358.26,172.14 C358.85,171.55 359.90,171.90 361.06,173.06 C362.56,174.56 363.86,174.80 367.87,174.33 C374.30,173.57 377.15,174.35 379.00,177.38 C381.33,181.20 387.98,186.00 390.95,186.00 C392.62,186.00 394.71,187.13 396.50,189.00 C398.08,190.65 400.19,192.00 401.19,192.00 C402.25,192.00 403.00,192.73 403.00,193.75 C403.00,194.71 404.32,196.38 405.93,197.46 C407.54,198.54 408.57,199.89 408.21,200.46 C407.85,201.03 407.47,202.09 407.36,202.81 C407.16,204.13 403.23,208.00 402.09,208.00 C401.76,208.00 399.92,207.55 398.00,207.00 C394.55,206.01 388.21,207.21 386.97,209.10 C386.68,209.54 384.88,210.11 382.97,210.35 C374.72,211.42 361.01,217.52 361.76,219.78 C362.32,221.45 359.01,221.32 354.65,219.50 C352.68,218.68 348.66,218.00 345.71,218.00 C341.03,218.00 339.69,218.50 334.98,222.02 C332.02,224.22 327.93,226.48 325.89,227.03 C323.86,227.58 321.13,228.95 319.84,230.08 C317.34,232.27 317.85,232.26 322.31,230.03 C324.62,228.88 326.15,228.84 330.87,229.81 C334.03,230.47 338.63,231.00 341.09,231.00 C346.68,231.00 348.66,232.39 354.59,240.47 C361.43,249.78 367.79,252.07 376.60,248.39 C379.53,247.17 382.07,246.95 387.22,247.45 C391.62,247.89 394.00,247.76 394.00,247.10 C394.00,245.10 389.47,243.69 383.69,243.90 C380.16,244.03 377.24,243.61 376.32,242.85 C375.08,241.82 374.64,241.89 373.89,243.22 C372.69,245.38 365.18,245.01 361.54,242.62 C358.76,240.80 358.24,236.22 360.88,236.79 C362.63,237.16 365.14,235.04 364.39,233.82 C363.68,232.67 366.88,230.08 369.08,230.03 C369.94,230.01 371.39,229.21 372.30,228.25 C373.20,227.29 375.53,224.83 377.47,222.78 C379.41,220.74 381.00,218.70 381.00,218.25 C381.00,217.80 383.51,217.43 386.58,217.43 C391.21,217.43 392.46,217.04 393.88,215.17 C395.00,213.67 396.16,213.12 397.29,213.56 C398.28,213.94 399.00,213.74 399.00,213.08 C399.00,212.46 400.16,211.51 401.59,210.97 C403.59,210.21 404.77,210.39 406.84,211.77 C408.64,212.98 411.10,213.49 414.50,213.36 C417.78,213.23 420.36,213.74 422.00,214.83 C423.38,215.75 426.73,217.46 429.47,218.65 C432.20,219.83 434.63,221.40 434.87,222.15 C435.46,223.96 440.19,228.00 441.72,228.00 C442.39,228.00 442.69,228.63 442.40,229.41 C442.03,230.37 442.89,231.02 445.18,231.48 C453.13,233.07 455.20,234.12 454.64,236.27 C454.34,237.40 454.58,239.21 455.15,240.29 C455.73,241.37 455.82,242.53 455.35,242.88 C454.88,243.22 454.00,244.40 453.39,245.50 C452.45,247.20 451.28,247.49 445.64,247.44 C441.99,247.41 439.00,247.74 439.00,248.19 C439.00,249.28 435.26,249.23 434.57,248.12 C434.28,247.64 432.00,247.47 429.52,247.75 C425.80,248.17 425.00,247.97 425.00,246.63 C425.00,245.73 424.83,245.00 424.63,245.00 C422.96,245.00 413.85,249.85 411.22,252.14 C407.01,255.80 402.08,255.90 394.00,252.50 C385.76,249.03 383.54,249.25 378.38,254.00 C375.12,257.01 373.22,258.00 370.68,258.00 C366.01,258.00 355.69,252.61 351.77,248.12 C344.26,239.53 337.65,236.58 332.19,239.40 C330.00,240.54 326.83,240.94 321.30,240.79 C316.74,240.67 312.61,241.07 311.36,241.77 C310.18,242.42 307.80,245.46 306.08,248.52 C303.04,253.90 295.69,260.00 292.24,260.00 C291.49,260.00 288.74,260.92 286.13,262.04 C280.69,264.38 278.00,268.13 278.00,273.37 C278.00,277.96 282.74,282.89 289.58,285.42 C292.29,286.42 297.95,288.77 302.17,290.64 C309.70,293.98 309.93,294.01 314.17,292.54 C319.94,290.53 322.24,290.62 325.24,292.97 C327.47,294.73 329.58,294.98 344.11,295.22 C359.17,295.48 360.50,295.65 360.83,297.37 C361.05,298.49 359.98,300.34 358.16,302.00 C355.19,304.71 355.15,304.90 355.70,312.18 C356.41,321.60 354.85,324.97 348.02,328.77 C344.77,330.57 342.90,332.35 342.50,334.00 C342.17,335.38 341.68,337.25 341.41,338.17 C340.97,339.67 342.54,339.84 357.71,339.95 C376.64,340.09 410.88,341.55 411.58,342.25 C412.58,343.24 294.51,346.25 271.50,345.81 C267.65,345.73 241.32,345.30 213.00,344.85 M 318.77,338.03 C318.05,334.31 314.74,334.03 270.90,334.01 C227.12,334.00 222.96,334.33 221.01,337.98 C220.11,339.67 222.45,339.75 269.55,339.63 C312.59,339.52 319.01,339.31 318.77,338.03 M 409.17,251.35 C410.18,250.43 411.00,248.69 411.00,247.48 C411.00,245.63 410.29,245.16 406.75,244.66 C403.05,244.13 402.21,244.38 400.25,246.58 C399.01,247.97 398.00,249.47 398.00,249.90 C398.00,251.05 402.11,252.85 404.92,252.93 C406.25,252.97 408.17,252.26 409.17,251.35 M 419.50,245.00 C421.81,242.45 420.26,242.45 417.00,245.00 C415.18,246.42 414.93,246.96 416.10,246.98 C416.97,246.99 418.50,246.10 419.50,245.00 M 400.04,244.46 C401.91,242.19 399.89,240.45 397.11,241.94 C395.95,242.56 395.00,242.75 395.00,242.37 C395.00,241.98 394.70,241.97 394.32,242.34 C393.69,242.98 396.75,245.90 398.13,245.97 C398.47,245.99 399.33,245.31 400.04,244.46 M 414.98,242.63 C414.99,242.15 414.33,242.31 413.51,242.99 C412.69,243.67 412.30,244.67 412.64,245.22 C413.26,246.22 414.95,244.35 414.98,242.63 M 178.16,233.42 L 181.22,231.84 L 175.86,226.93 C170.37,221.91 169.00,221.15 169.00,223.13 C169.00,223.87 167.63,224.08 165.00,223.73 C161.11,223.20 161.00,223.27 161.00,226.17 C161.00,230.78 165.77,235.00 170.97,235.00 C173.24,235.00 176.48,234.29 178.16,233.42 M 195.47,228.89 L 199.44,227.78 L 196.21,224.89 C192.24,221.34 189.95,221.25 186.31,224.50 C183.57,226.94 183.55,227.04 185.44,228.50 C187.75,230.28 190.12,230.37 195.47,228.89 M 158.50,225.01 C159.18,222.86 158.46,221.00 156.94,221.00 C156.42,221.00 156.00,221.93 156.00,223.06 C156.00,224.19 155.58,224.86 155.07,224.54 C154.56,224.23 153.84,224.45 153.47,225.05 C153.02,225.77 152.17,225.56 150.90,224.41 C149.32,222.98 149.00,222.94 149.00,224.18 C149.00,226.45 149.99,227.00 154.10,227.00 C156.98,227.00 158.01,226.53 158.50,225.01 M 184.00,220.10 C184.00,219.32 183.39,219.36 182.00,220.23 C180.41,221.23 179.60,221.23 178.01,220.24 C173.45,217.39 172.56,219.89 176.62,224.13 L 179.24,226.86 L 181.62,224.04 C182.93,222.48 184.00,220.71 184.00,220.10 M 188.00,219.00 C188.00,218.45 187.55,218.00 187.00,218.00 C186.45,218.00 186.00,218.45 186.00,219.00 C186.00,219.55 186.45,220.00 187.00,220.00 C187.55,220.00 188.00,219.55 188.00,219.00 M 365.08,213.08 C367.95,210.20 368.96,207.00 367.00,207.00 C366.45,207.00 366.00,207.77 366.00,208.70 C366.00,210.02 365.73,210.13 364.80,209.20 C364.14,208.54 362.67,208.00 361.52,208.00 C360.38,208.00 358.49,207.33 357.33,206.52 C355.34,205.12 354.97,205.29 351.51,209.12 C346.81,214.33 348.02,215.62 357.83,215.88 C361.36,215.98 362.69,215.47 365.08,213.08 M 376.08,210.00 C376.59,210.00 377.00,209.55 377.00,209.00 C377.00,207.55 375.66,207.77 373.44,209.58 C371.66,211.03 371.66,211.11 373.33,210.58 C374.34,210.26 375.58,210.00 376.08,210.00 M 351.65,203.52 C351.08,202.05 350.79,202.03 348.89,203.36 C347.73,204.18 346.15,204.61 345.39,204.32 C343.27,203.51 343.73,204.96 346.25,207.03 C348.44,208.83 348.55,208.83 350.39,207.02 C351.51,205.92 352.02,204.50 351.65,203.52 M 373.00,207.00 C373.00,206.45 372.55,206.00 372.00,206.00 C371.45,206.00 371.00,206.45 371.00,207.00 C371.00,207.55 371.45,208.00 372.00,208.00 C372.55,208.00 373.00,207.55 373.00,207.00 M 225.41,179.14 C225.95,178.27 221.56,173.85 217.19,170.86 C215.10,169.44 214.45,169.40 212.15,170.61 C210.69,171.37 208.94,171.99 208.25,171.99 C205.56,172.01 207.21,175.01 211.25,177.43 C215.52,179.99 224.24,181.04 225.41,179.14 M 202.00,173.56 C202.00,173.32 201.55,172.84 201.00,172.50 C200.45,172.16 200.00,172.36 200.00,172.94 C200.00,173.52 200.45,174.00 201.00,174.00 C201.55,174.00 202.00,173.80 202.00,173.56 M 223.93,168.60 C222.90,167.57 218.00,166.86 218.00,167.74 C218.00,169.18 222.35,170.91 223.43,169.90 C223.95,169.43 224.17,168.84 223.93,168.60 M 314.02,158.63 C315.96,157.82 318.40,156.21 319.45,155.05 C322.35,151.85 319.96,150.25 311.31,149.62 C307.36,149.33 303.17,148.51 302.00,147.80 C300.19,146.69 299.75,146.75 298.89,148.25 C298.35,149.21 296.99,150.00 295.87,150.00 C294.08,150.00 294.27,150.50 297.44,154.20 C299.42,156.52 301.55,160.09 302.16,162.14 L 303.28,165.87 L 306.89,162.98 C308.88,161.39 312.08,159.43 314.02,158.63 M 333.81,157.24 C338.60,154.19 339.09,153.56 338.81,150.69 C338.52,147.71 338.26,147.51 334.53,147.51 C329.37,147.50 325.15,150.44 323.20,155.39 C321.79,158.99 321.80,159.38 323.43,160.57 C325.53,162.11 326.82,161.69 333.81,157.24 M 348.72,148.49 C348.85,147.39 348.71,147.06 348.40,147.75 C348.09,148.44 347.20,149.00 346.42,149.00 C345.64,149.00 345.00,149.48 345.00,150.07 C345.00,152.01 348.47,150.53 348.72,148.49 M 343.00,147.44 C343.00,145.99 342.57,145.15 342.00,145.50 C341.45,145.84 341.00,146.99 341.00,148.06 C341.00,149.13 341.45,150.00 342.00,150.00 C342.55,150.00 343.00,148.85 343.00,147.44 M 326.44,147.42 C327.31,146.55 327.74,145.39 327.40,144.83 C326.99,144.17 326.40,144.20 325.69,144.91 C325.09,145.51 323.73,146.00 322.68,146.00 C321.08,146.00 320.97,146.26 322.00,147.50 C323.58,149.40 324.47,149.39 326.44,147.42 M 279.08,110.34 C281.21,107.99 281.26,107.78 279.50,108.49 C276.11,109.86 270.85,109.77 270.30,108.33 C269.55,106.39 268.23,106.70 267.50,108.99 C266.54,112.03 267.72,113.00 272.38,113.00 C275.73,113.00 277.17,112.43 279.08,110.34 M 262.84,109.60 C263.16,107.96 262.78,107.79 259.92,108.37 C255.85,109.18 255.14,109.84 257.03,111.06 C259.28,112.51 262.44,111.72 262.84,109.60 Z" fill="rgba(0,0,0,1)"/>
</g>
</svg>